<svg id="Capa_1" enable-background="new 0 0 512 512" height="512" viewBox="0 0 512 512" width="512" xmlns="http://www.w3.org/2000/svg"><g><path d="m165.055 430.679h181.89v81.321h-181.89z" fill="#455da0"/><path d="m256 430.679h90.945v81.321h-90.945z" fill="#214070"/><g><path d="m407.223 260.433h-68.063v14.99 14.991 125.278 14.991 14.991h114.978v-70.48z" fill="#0174f9"/><path d="m57.862 375.194v70.48h114.978v-14.991-14.991-125.278-14.991-14.99h-68.063z" fill="#00b3ff"/></g><path d="m372.519 146.741v315.289h-233.038v-315.289c0-38.257 20.478-75.414 56.186-101.928l60.333-44.813 60.333 44.813c35.709 26.514 56.186 63.671 56.186 101.928z" fill="#edf7fc"/><path d="m372.519 146.741v315.289h-116.519v-462.03l60.333 44.813c35.709 26.514 56.186 63.671 56.186 101.928z" fill="#c0ddff"/><path d="m139.481 392.143h233.039v69.888h-233.039z" fill="#fd4b49"/><path d="m241.009 238.586h29.982v61.283h-29.982z" fill="#455da0"/><path d="m256 238.586h14.991v61.283h-14.991z" fill="#214070"/><path d="m256 392.143h116.519v69.888h-116.519z" fill="#e70b69"/><path d="m372.509 146.221h-233.018c.18-38.077 20.628-75.015 56.176-101.409l60.333-44.812 60.333 44.813c35.549 26.394 55.997 63.331 56.176 101.408z" fill="#fd4b49"/><circle cx="256" cy="197.93" fill="#00b3ff" r="51.709"/><path d="m256 249.639v-103.418c28.513 0 51.709 23.196 51.709 51.709s-23.196 51.709-51.709 51.709z" fill="#0174f9"/><path d="m372.509 146.221h-116.509v-146.221l60.333 44.813c35.549 26.394 55.997 63.331 56.176 101.408z" fill="#e70b69"/></g></svg>